<svg xmlns="http://www.w3.org/2000/svg" xmlns:xlink="http://www.w3.org/1999/xlink" version="1.1" x="0px" y="0px" viewBox="0 0 100 125" enable-background="new 0 0 100 100" xml:space="preserve"><g><path d="M15.257,36.764v26.45c0,0.382,0.155,0.756,0.425,1.026c0.27,0.27,0.644,0.425,1.026,0.425h21.89   c0.802,0,1.451-0.65,1.451-1.451c0-0.802-0.65-1.451-1.451-1.451l-20.438,0V38.216h20.438c0.802,0,1.451-0.65,1.451-1.451   c0-0.802-0.65-1.451-1.451-1.451v0h-21.89c-0.382,0-0.756,0.155-1.026,0.425C15.412,36.008,15.257,36.382,15.257,36.764z"/><path d="M84.743,36.764c0-0.382-0.155-0.756-0.425-1.027s-0.644-0.425-1.026-0.425h-21.89c-0.802,0-1.452,0.65-1.452,1.452   c0,0.802,0.65,1.452,1.452,1.452l20.438,0v23.547l-20.438,0c-0.802,0-1.452,0.65-1.452,1.452c0,0.802,0.65,1.452,1.452,1.452v0   h21.89c0.382,0,0.756-0.155,1.026-0.425c0.27-0.27,0.425-0.644,0.425-1.026V36.764z"/></g></svg>